<?xml version="1.0" encoding="UTF-8" standalone="no"?>
<svg width="44px" height="44px" viewBox="0 0 44 44" version="1.1" xmlns="http://www.w3.org/2000/svg" xmlns:xlink="http://www.w3.org/1999/xlink">
    <!-- Generator: Sketch 3.8.2 (29753) - http://www.bohemiancoding.com/sketch -->
    <title>instagram</title>
    <desc>Created with Sketch.</desc>
    <defs>
        <circle id="path-1" cx="22" cy="22" r="22"></circle>
        <mask id="mask-2" maskContentUnits="userSpaceOnUse" maskUnits="objectBoundingBox" x="0" y="0" width="44" height="44" fill="white">
            <use xlink:href="#path-1"></use>
        </mask>
    </defs>
    <g id="mockup" stroke="none" stroke-width="1" fill="none" fill-rule="evenodd">
        <g id="webpage_mockup_yellow" transform="translate(-698.000000, -2927.000000)">
            <g id="contact" transform="translate(432.000000, 2484.000000)">
                <g id="instagram" transform="translate(266.000000, 443.000000)">
                    <rect id="Rectangle" x="0" y="0" width="44" height="44"></rect>
                    <use id="Oval" stroke="#50A2D2" mask="url(#mask-2)" stroke-width="4" xlink:href="#path-1"></use>
                    <path d="M28.4414981,11.5 L15.5585019,11.5 C13.3212018,11.5 11.5,13.3199671 11.5,15.5585019 L11.5,28.4414981 C11.5,30.6800329 13.3212018,32.5 15.5585019,32.5 L28.4414981,32.5 C30.6787982,32.5 32.5,30.6800329 32.5,28.4414981 L32.5,15.5585019 C32.5,13.3199671 30.6787982,11.5 28.4414981,11.5 L28.4414981,11.5 Z M29.6058325,13.9212723 L30.0700847,13.9188029 L30.0700847,17.4784807 L26.5215193,17.4895931 L26.5091722,13.9299153 L29.6058325,13.9212723 L29.6058325,13.9212723 Z M19.0033514,19.844191 C19.6750353,18.9132173 20.7665216,18.303269 22,18.303269 C23.2334784,18.303269 24.3249647,18.9132173 24.9966486,19.844191 C25.4349718,20.4516698 25.696731,21.1949671 25.696731,22 C25.696731,24.0372766 24.0385113,25.6954962 22,25.6954962 C19.9627234,25.6954962 18.3045038,24.0372766 18.3045038,22 C18.3045038,21.1949671 18.5662629,20.4516698 19.0033514,19.844191 L19.0033514,19.844191 Z M30.4540804,28.4414981 C30.4540804,29.5515052 29.5515052,30.4540804 28.4414981,30.4540804 L15.5585019,30.4540804 C14.4484948,30.4540804 13.5459196,29.5515052 13.5459196,28.4414981 L13.5459196,19.844191 L16.6820908,19.844191 C16.4104539,20.510936 16.2585842,21.238182 16.2585842,22 C16.2585842,25.1658043 18.8341957,27.7426505 22,27.7426505 C25.167039,27.7426505 27.7426505,25.1658043 27.7426505,22 C27.7426505,21.238182 27.5883114,20.510936 27.3191439,19.844191 L30.4540804,19.844191 L30.4540804,28.4414981 L30.4540804,28.4414981 Z" id="Shape" fill="#757575"></path>
                </g>
            </g>
        </g>
    </g>
</svg>