<?xml version="1.0" encoding="UTF-8" standalone="no"?>
<svg width="44px" height="44px" viewBox="0 0 44 44" version="1.1" xmlns="http://www.w3.org/2000/svg" xmlns:xlink="http://www.w3.org/1999/xlink">
    <!-- Generator: Sketch 3.8.2 (29753) - http://www.bohemiancoding.com/sketch -->
    <title>mail</title>
    <desc>Created with Sketch.</desc>
    <defs>
        <circle id="path-1" cx="22" cy="22" r="22"></circle>
        <mask id="mask-2" maskContentUnits="userSpaceOnUse" maskUnits="objectBoundingBox" x="0" y="0" width="44" height="44" fill="white">
            <use xlink:href="#path-1"></use>
        </mask>
    </defs>
    <g id="mockup" stroke="none" stroke-width="1" fill="none" fill-rule="evenodd">
        <g id="webpage_mockup_yellow" transform="translate(-746.000000, -2730.000000)">
            <g id="contact" transform="translate(432.000000, 2484.000000)">
                <g id="mail" transform="translate(314.000000, 246.000000)">
                    <rect id="Rectangle" x="0" y="0" width="44" height="44"></rect>
                    <use id="Oval" stroke="#50A2D2" mask="url(#mask-2)" stroke-width="4" xlink:href="#path-1"></use>
                    <path d="M13.1115479,18.9319176 C13.389863,19.1136566 14.228726,19.6535732 15.6282877,20.5512492 C17.0278493,21.4489252 18.0999726,22.1401747 18.8448082,22.6248583 C18.9266301,22.6779992 19.1005205,22.7934864 19.3664795,22.9714595 C19.6324384,23.149572 19.8534932,23.293652 20.0293425,23.4034207 C20.2053425,23.5131893 20.4181096,23.6363478 20.6677945,23.7726171 C20.9174795,23.9088864 21.1528493,24.0112628 21.3737534,24.0791882 C21.5948082,24.1475321 21.7994384,24.1814251 21.9876438,24.1814251 L22,24.1814251 L22.0123562,24.1814251 C22.2005616,24.1814251 22.4051918,24.1475321 22.6262466,24.0791882 C22.8471507,24.0112628 23.0826712,23.908747 23.3322055,23.7726171 C23.5817397,23.6362083 23.7945068,23.5131893 23.9705068,23.4034207 C24.1465068,23.293652 24.367411,23.149572 24.6333699,22.9714595 C24.8993288,22.7933469 25.0733699,22.6779992 25.1551918,22.6248583 C25.9080137,22.1400352 27.8233699,20.9090085 30.9006575,18.9316387 C31.4981233,18.545426 31.9971918,18.0794323 32.3983151,17.5339366 C32.799589,16.9887198 33,16.4167233 33,15.8182262 C33,15.3182 32.8054658,14.8901442 32.4166986,14.5340586 C32.0279315,14.177973 31.5674384,14 31.0356712,14 L12.9641781,14 C12.3340137,14 11.8491096,14.196942 11.5094658,14.5908259 C11.1698219,14.9848493 11,15.4773437 11,16.0681695 C11,16.5454609 11.2251233,17.0626427 11.6752192,17.6194362 C12.1253151,18.1762296 12.6041918,18.6137699 13.1115479,18.9319176 Z M31.7722192,20.1477413 C29.0879178,21.8294193 27.0497534,23.1363216 25.6586301,24.0681695 C25.1921096,24.3863173 24.813589,24.6345869 24.5229178,24.8124205 C24.2323973,24.990533 23.8457397,25.1722719 23.3627945,25.3579162 C22.88,25.5435605 22.4299041,25.6363129 22.0125068,25.6363129 L22,25.6363129 L21.9876438,25.6363129 C21.5702466,25.6363129 21.12,25.5435605 20.6372055,25.3579162 C20.154411,25.1722719 19.7676027,24.990533 19.4770822,24.8124205 C19.1865616,24.6345869 18.8080411,24.3863173 18.3415205,24.0681695 C17.2365479,23.3182 15.2027534,22.0112977 12.2399863,20.1477413 C11.7734658,19.8599997 11.360137,19.5302753 11,19.1591262 L11,28.1816343 C11,28.6818 11.192274,29.1097163 11.5769726,29.4658019 C11.9616712,29.822027 12.4241233,30 12.9643288,30 L31.0358219,30 C31.5758767,30 32.0383288,29.822027 32.4230274,29.4658019 C32.8078767,29.1095769 33,28.6818 33,28.1816343 L33,19.1591262 C32.648,19.522604 32.2388904,19.8523284 31.7722192,20.1477413 Z" id="Shape" fill="#757575"></path>
                </g>
            </g>
        </g>
    </g>
</svg>