<?xml version="1.0" encoding="UTF-8" standalone="no"?>
<svg width="44px" height="44px" viewBox="0 0 44 44" version="1.1" xmlns="http://www.w3.org/2000/svg" xmlns:xlink="http://www.w3.org/1999/xlink">
    <!-- Generator: Sketch 3.8.2 (29753) - http://www.bohemiancoding.com/sketch -->
    <title>phone</title>
    <desc>Created with Sketch.</desc>
    <defs>
        <path d="M22,44 C34.1502645,44 44,34.1502645 44,22 C44,9.8497355 34.1502645,0 22,0 C9.8497355,0 0,9.8497355 0,22 C0,34.1502645 9.8497355,44 22,44 Z" id="path-1"></path>
        <mask id="mask-2" maskContentUnits="userSpaceOnUse" maskUnits="objectBoundingBox" x="0" y="0" width="44" height="44" fill="white">
            <use xlink:href="#path-1"></use>
        </mask>
    </defs>
    <g id="mockup" stroke="none" stroke-width="1" fill="none" fill-rule="evenodd">
        <g id="webpage_mockup_yellow" transform="translate(-652.000000, -2730.000000)">
            <g id="contact" transform="translate(432.000000, 2484.000000)">
                <g id="phone" transform="translate(220.000000, 246.000000)">
                    <rect id="Rectangle" x="0" y="0" width="44" height="44"></rect>
                    <use id="Oval" stroke="#50A2D2" mask="url(#mask-2)" stroke-width="4" xlink:href="#path-1"></use>
                    <path d="M27.1333333,24.2 C25.6666667,25.6666667 25.6666667,27.1333333 24.2,27.1333333 C22.7333333,27.1333333 21.2666667,25.6666667 19.8,24.2 C18.3333333,22.7333333 16.8666667,21.2666667 16.8666667,19.8 C16.8666667,18.3333333 18.3333333,18.3333333 19.8,16.8666667 C21.2666667,15.4 16.8666667,11 15.4,11 C13.9333333,11 11,15.4 11,15.4 C11,18.3333333 14.014,24.2806667 16.8666667,27.1333333 C19.7178667,29.986 25.6666667,33 28.6,33 C28.6,33 33,30.0666667 33,28.6 C33,27.1333333 28.6,22.7333333 27.1333333,24.2" id="Shape" fill="#757575"></path>
                </g>
            </g>
        </g>
    </g>
</svg>