<svg width="1441px" height="1025px" viewBox="-1 0 1441 1025" version="1.1" xmlns="http://www.w3.org/2000/svg" xmlns:xlink="http://www.w3.org/1999/xlink">
    <!-- Generator: Sketch 3.8.2 (29753) - http://www.bohemiancoding.com/sketch -->
    <desc>Created with Sketch.</desc>
    <defs>
        <rect id="path-1" x="-4.54747351e-13" y="0" width="1440" height="1024"></rect>
    </defs>
    <g id="background" stroke="none" stroke-width="1" fill="none" fill-rule="evenodd">
        <mask id="mask-2" fill="white">
            <use xlink:href="#path-1"></use>
        </mask>
        <use id="Rectangle-1" fill="#FFFFFF" xlink:href="#path-1"></use>
        <path d="M1330.5,299 C1441.78538,299 1532,208.785377 1532,97.5 C1532,-13.7853771 1441.78538,-104 1330.5,-104 C1219.21462,-104 1129,-13.7853771 1129,97.5 C1129,208.785377 1219.21462,299 1330.5,299 Z" id="Oval-1" stroke="#FCFF64" stroke-width="60" mask="url(#mask-2)"></path>
        <circle id="Oval-1" stroke="#FCFF64" stroke-width="60" mask="url(#mask-2)" cx="172" cy="862" r="221"></circle>
        <path d="M354.5,450 C437.618855,450 505,382.618855 505,299.5 C505,216.381145 437.618855,149 354.5,149 C271.381145,149 204,216.381145 204,299.5 C204,382.618855 271.381145,450 354.5,450 Z" id="Oval-1" stroke="#50A2D2" stroke-width="40" mask="url(#mask-2)"></path>
        <path d="M1084,834 C1190.59096,834 1277,747.590957 1277,641 C1277,534.409043 1190.59096,448 1084,448 C977.409043,448 891,534.409043 891,641 C891,747.590957 977.409043,834 1084,834 Z" id="Oval-1" stroke="#50A2D2" stroke-width="40" mask="url(#mask-2)"></path>
    </g>
</svg>